# File created by Blade
# Date/Time:  Thu Jan 22 16:04:59 2015
# Frame Rate: 120.000 fps
#------------------------------------------------------
:FULLY-SPECIFIED
:DEGREES
2004
root 3.627745 36.802381 4.590724 -4.899995 -4.135244 2.096264
RightUpLeg 11.571652 -3.936992 -9.767932
RightLeg -6.057631 -0.000000 0.000000
RightFoot -9.039646 -11.985163 18.656942
RightToeBase 11.669471 -0.000000 -0.000000
LeftUpLeg 9.905880 -0.336171 6.784334
LeftLeg -3.060956 -0.000000 0.000000
LeftFoot -5.286158 5.096728 -21.840715
LeftToeBase 7.065176 -0.000000 -0.000000
Spine 4.026136 -3.161433 -1.482608
RightShoulder 28.833695 -9.017090 -17.016049
RightArm 59.105354 -39.773959 57.792639
RightForeArm -39.122128 -0.000000 17.985008
RightHand 3.794287 -0.000000 10.026688
RightHandThumb1 -24.326973 -0.000000 -32.862282
LeftShoulder 11.279387 24.762127 11.267671
LeftArm 79.305191 26.814365 -50.106266
LeftForeArm 56.343451 -0.000000 8.551768
LeftHand -11.221108 -0.000000 -19.293640
LeftHandThumb1 -26.253704 0.000000 33.147579
Head -10.228067 14.514050 -1.422802
2005
root 3.627724 36.801815 4.592147 -4.910458 -4.110491 2.104273
RightUpLeg 11.595142 -3.938261 -9.777171
RightLeg -6.067277 -0.000000 0.000000
RightFoot -9.048748 -11.999288 18.659160
RightToeBase 11.664835 -0.000000 -0.000000
LeftUpLeg 9.916330 -0.349316 6.775614
LeftLeg -3.072648 -0.000000 0.000000
LeftFoot -5.284151 5.105335 -21.843030
LeftToeBase 7.122792 -0.000000 -0.000000
Spine 4.031395 -3.153956 -1.488611
RightShoulder 28.834103 -9.016432 -16.995834
RightArm 59.039380 -39.844001 57.802125
RightForeArm -39.197902 -0.000000 18.031227
RightHand 3.763328 -0.000000 10.073491
RightHandThumb1 -24.326973 -0.000000 -32.862282
LeftShoulder 11.216699 24.795205 11.214276
LeftArm 79.341959 26.878266 -49.960055
LeftForeArm 56.224437 0.000000 8.593619
LeftHand -11.232587 -0.000000 -19.329516
LeftHandThumb1 -26.253704 0.000000 33.147579
Head -10.337742 14.433052 -1.384467
2006
root 3.628716 36.802295 4.591459 -4.916062 -4.100270 2.114024
RightUpLeg 11.604457 -3.933553 -9.787814
RightLeg -6.073607 -0.000000 0.000000
RightFoot -9.055803 -12.001832 18.687603
RightToeBase 11.655881 -0.000000 -0.000000
LeftUpLeg 9.917005 -0.352033 6.763758
LeftLeg -3.071389 -0.000000 0.000000
LeftFoot -5.270909 5.106286 -21.835036
LeftToeBase 7.108566 -0.000000 -0.000000
Spine 4.033836 -3.138136 -1.489832
RightShoulder 28.856004 -8.999953 -17.005902
RightArm 59.075153 -39.964732 57.651439
RightForeArm -39.211494 -0.000000 18.091219
RightHand 3.709041 -0.000000 9.996455
RightHandThumb1 -24.326973 -0.000000 -32.862282
LeftShoulder 11.150748 24.823707 11.152203
LeftArm 79.362580 26.928493 -49.879434
LeftForeArm 56.083375 -0.000000 8.593003
LeftHand -11.230250 -0.000000 -19.343414
LeftHandThumb1 -26.253704 0.000000 33.147579
Head -10.452999 14.352317 -1.338054
2007
root 3.629471 36.802535 4.592642 -4.919598 -4.087482 2.128070
RightUpLeg 11.616714 -3.938468 -9.804513
RightLeg -6.082172 -0.000000 0.000000
RightFoot -9.052084 -12.006870 18.693485
RightToeBase 11.669485 -0.000000 -0.000000
LeftUpLeg 9.923363 -0.367823 6.746722
LeftLeg -3.078988 -0.000000 0.000000
LeftFoot -5.242638 5.114010 -21.816129
LeftToeBase 6.995238 -0.000000 -0.000000
Spine 4.028379 -3.105484 -1.497663
RightShoulder 28.845045 -9.017133 -16.989849
RightArm 59.077097 -40.048992 57.571753
RightForeArm -39.195331 -0.000000 18.123083
RightHand 3.860593 -0.000000 9.993757
RightHandThumb1 -24.326973 -0.000000 -32.862282
LeftShoulder 11.103191 24.837203 11.105259
LeftArm 79.352974 26.993361 -49.842094
LeftForeArm 56.108143 0.000000 8.607930
LeftHand -11.222663 -0.000000 -19.355190
LeftHandThumb1 -26.253704 0.000000 33.147579
Head -10.571684 14.292145 -1.298433
2008
root 3.629842 36.801958 4.592096 -4.920880 -4.063807 2.126766
RightUpLeg 11.622443 -3.946000 -9.804420
RightLeg -6.076310 -0.000000 0.000000
RightFoot -9.065408 -12.037286 18.681169
RightToeBase 11.652448 -0.000000 -0.000000
LeftUpLeg 9.916998 -0.387351 6.745845
LeftLeg -3.079076 -0.000000 0.000000
LeftFoot -5.264905 5.116849 -21.832236
LeftToeBase 7.105569 -0.000000 -0.000000
Spine 4.024484 -3.098346 -1.489408
RightShoulder 28.844142 -9.065587 -16.981662
RightArm 59.162405 -40.145155 57.365838
RightForeArm -39.099343 0.000000 18.204184
RightHand 3.788359 -0.000000 9.964985
RightHandThumb1 -24.326973 -0.000000 -32.862282
LeftShoulder 11.060888 24.844481 11.062442
LeftArm 79.338479 27.051014 -49.807854
LeftForeArm 56.126103 -0.000000 8.633218
LeftHand -11.210734 -0.000000 -19.376824
LeftHandThumb1 -26.253704 0.000000 33.147579
Head -10.680384 14.249324 -1.266094
2009
root 3.631148 36.801713 4.592338 -4.921637 -4.046209 2.128924
RightUpLeg 11.627880 -3.955772 -9.809295
RightLeg -6.080917 -0.000000 0.000000
RightFoot -9.066754 -12.025255 18.697289
RightToeBase 11.656148 -0.000000 -0.000000
LeftUpLeg 9.912361 -0.398735 6.741016
LeftLeg -3.073984 -0.000000 0.000000
LeftFoot -5.267749 5.104552 -21.833085
LeftToeBase 7.088300 -0.000000 -0.000000
Spine 4.024050 -3.069519 -1.477255
RightShoulder 28.826760 -9.078108 -16.980308
RightArm 59.128882 -40.204792 57.360130
RightForeArm -38.926014 -0.000000 18.248048
RightHand 3.577701 -0.000000 10.157606
RightHandThumb1 -24.326973 -0.000000 -32.862282
LeftShoulder 11.020121 24.828295 11.014070
LeftArm 79.328108 27.133108 -49.754484
LeftForeArm 56.104593 -0.000000 8.647418
LeftHand -11.192262 -0.000000 -19.358156
LeftHandThumb1 -26.253704 0.000000 33.147579
Head -10.811938 14.178546 -1.273034
2010
root 3.630484 36.802289 4.591511 -4.921059 -4.042477 2.124616
RightUpLeg 11.626366 -3.950257 -9.803563
RightLeg -6.079043 -0.000000 0.000000
RightFoot -9.061524 -12.030077 18.711323
RightToeBase 11.659357 -0.000000 -0.000000
LeftUpLeg 9.910560 -0.387085 6.748615
LeftLeg -3.075226 -0.000000 0.000000
LeftFoot -5.257219 5.088648 -21.837537
LeftToeBase 7.064380 -0.000000 -0.000000
Spine 4.026052 -3.007106 -1.467270
RightShoulder 28.804543 -9.077743 -16.963126
RightArm 59.018520 -40.238862 57.439277
RightForeArm -38.994772 -0.000000 18.297516
RightHand 3.524369 -0.000000 10.218761
RightHandThumb1 -24.326973 -0.000000 -32.862282
LeftShoulder 11.005488 24.857526 10.999412
LeftArm 79.377267 27.176922 -49.673810
LeftForeArm 56.006625 -0.000000 8.635194
LeftHand -11.142575 -0.000000 -19.374012
LeftHandThumb1 -26.253704 0.000000 33.147579
Head -10.950611 14.099409 -1.249962
2011
root 3.631946 36.802214 4.590136 -4.917544 -4.019815 2.131803
RightUpLeg 11.627633 -3.954684 -9.811996
RightLeg -6.081102 -0.000000 0.000000
RightFoot -9.068807 -12.049188 18.704081
RightToeBase 11.671412 -0.000000 -0.000000
LeftUpLeg 9.894169 -0.392905 6.741007
LeftLeg -3.066236 -0.000000 0.000000
LeftFoot -5.248962 5.071876 -21.825702
LeftToeBase 7.069616 -0.000000 -0.000000
Spine 4.020886 -2.989575 -1.467704
RightShoulder 28.826392 -9.050134 -16.955615
RightArm 58.856922 -40.266069 57.581855
RightForeArm -39.159579 -0.000000 18.338943
RightHand 3.482432 -0.000000 10.389207
RightHandThumb1 -24.326973 -0.000000 -32.862282
LeftShoulder 10.973405 24.856568 10.965515
LeftArm 79.375868 27.241965 -49.620345
LeftForeArm 56.009446 -0.000000 8.645650
LeftHand -11.154519 0.000000 -19.435195
LeftHandThumb1 -26.253704 0.000000 33.147579
Head -11.090176 14.029625 -1.222447
2012
root 3.633123 36.802245 4.588733 -4.911260 -4.004093 2.133777
RightUpLeg 11.623614 -3.962274 -9.816482
RightLeg -6.082719 -0.000000 0.000000
RightFoot -9.066755 -12.048708 18.724977
RightToeBase 11.638347 -0.000000 -0.000000
LeftUpLeg 9.880418 -0.416586 6.735394
LeftLeg -3.061618 -0.000000 0.000000
LeftFoot -5.256697 5.077189 -21.828996
LeftToeBase 7.100894 -0.000000 -0.000000
Spine 4.016228 -2.966971 -1.460508
RightShoulder 28.849054 -9.024971 -16.983483
RightArm 58.702880 -40.267692 57.774918
RightForeArm -39.290358 -0.000000 18.331929
RightHand 3.586609 -0.000000 10.367102
RightHandThumb1 -24.326973 -0.000000 -32.862282
LeftShoulder 10.926967 24.865792 10.936164
LeftArm 79.350480 27.284714 -49.638829
LeftForeArm 55.937495 -0.000000 8.685668
LeftHand -11.152321 -0.000000 -19.460980
LeftHandThumb1 -26.253704 0.000000 33.147579
Head -11.257429 13.979415 -1.200774
2013
root 3.633456 36.802743 4.587684 -4.909661 -3.987254 2.133716
RightUpLeg 11.624549 -3.974203 -9.817742
RightLeg -6.081156 -0.000000 0.000000
RightFoot -9.070930 -12.056137 18.740650
RightToeBase 11.660144 -0.000000 -0.000000
LeftUpLeg 9.873443 -0.421815 6.735435
LeftLeg -3.061659 -0.000000 0.000000
LeftFoot -5.246358 5.061899 -21.839331
LeftToeBase 7.087493 -0.000000 -0.000000
Spine 4.018766 -2.930004 -1.459915
RightShoulder 28.840514 -9.023916 -17.001063
RightArm 58.649341 -40.304698 57.811117
RightForeArm -39.205766 -0.000000 18.365589
RightHand 3.827934 -0.000000 10.097130
RightHandThumb1 -24.326973 -0.000000 -32.862282
LeftShoulder 10.913269 24.865236 10.917656
LeftArm 79.337814 27.335421 -49.622942
LeftForeArm 55.906750 -0.000000 8.700945
LeftHand -11.141699 -0.000000 -19.422061
LeftHandThumb1 -26.253704 0.000000 33.147579
Head -11.433316 13.910010 -1.163070
2014
root 3.634917 36.803225 4.586730 -4.911063 -3.968106 2.138000
RightUpLeg 11.622426 -3.992554 -9.825952
RightLeg -6.066206 -0.000000 0.000000
RightFoot -9.077300 -12.049595 18.723095
RightToeBase 11.647273 -0.000000 -0.000000
LeftUpLeg 9.868994 -0.444447 6.726283
LeftLeg -3.056020 -0.000000 0.000000
LeftFoot -5.240829 5.058579 -21.845084
LeftToeBase 7.047323 -0.000000 -0.000000
Spine 4.025746 -2.885351 -1.464243
RightShoulder 28.833961 -9.001184 -16.993610
RightArm 58.562823 -40.354066 57.855918
RightForeArm -39.166266 -0.000000 18.403853
RightHand 3.738163 -0.000000 10.088815
RightHandThumb1 -24.326973 -0.000000 -32.862282
LeftShoulder 10.903994 24.889600 10.918268
LeftArm 79.338999 27.354717 -49.654012
LeftForeArm 55.888799 0.000000 8.716146
LeftHand -11.143291 -0.000000 -19.423080
LeftHandThumb1 -26.253704 0.000000 33.147579
Head -11.636317 13.846611 -1.100543
2015
root 3.635994 36.803876 4.585078 -4.909775 -3.949066 2.142100
RightUpLeg 11.622868 -3.999562 -9.830803
RightLeg -6.066900 -0.000000 0.000000
RightFoot -9.074215 -12.063096 18.726652
RightToeBase 11.651220 -0.000000 -0.000000
LeftUpLeg 9.857476 -0.453609 6.720577
LeftLeg -3.054013 -0.000000 0.000000
LeftFoot -5.227208 5.068770 -21.812674
LeftToeBase 7.046284 -0.000000 -0.000000
Spine 4.026085 -2.837870 -1.473945
RightShoulder 28.823457 -9.016845 -16.957339
RightArm 58.403122 -40.317811 58.023393
RightForeArm -39.277185 -0.000000 18.427975
RightHand 3.720955 -0.000000 10.162277
RightHandThumb1 -24.326973 -0.000000 -32.862282
LeftShoulder 10.910394 24.874037 10.917384
LeftArm 79.321856 27.402692 -49.660417
LeftForeArm 55.877718 -0.000000 8.718907
LeftHand -11.118311 -0.000000 -19.446145
LeftHandThumb1 -26.253704 0.000000 33.147579
Head -11.784170 13.776904 -1.039657
2016
root 3.637174 36.803893 4.583264 -4.907167 -3.930434 2.140441
RightUpLeg 11.622836 -4.002607 -9.827994
RightLeg -6.068853 -0.000000 0.000000
RightFoot -9.080074 -12.083998 18.719127
RightToeBase 11.663664 -0.000000 -0.000000
LeftUpLeg 9.840426 -0.465104 6.720553
LeftLeg -3.038329 -0.000000 0.000000
LeftFoot -5.247054 5.054515 -21.843254
LeftToeBase 7.113272 -0.000000 -0.000000
Spine 4.030027 -2.799856 -1.469037
RightShoulder 28.821204 -9.010822 -16.957566
RightArm 58.297594 -40.312718 58.138421
RightForeArm -39.506238 -0.000000 18.431267
RightHand 3.811508 -0.000000 10.104211
RightHandThumb1 -24.326973 -0.000000 -32.862282
LeftShoulder 10.893865 24.861306 10.903238
LeftArm 79.334523 27.457844 -49.613653
LeftForeArm 55.885151 -0.000000 8.736527
LeftHand -11.148924 -0.000000 -19.466799
LeftHandThumb1 -26.253704 0.000000 33.147579
Head -11.981564 13.733543 -1.006740
